<?xml version="1.0" encoding="UTF-8"?>
<svg viewBox="0 0 559.62469 373.29596" xmlns="http://www.w3.org/2000/svg">
 <g transform="translate(-66.38 -391.32)" fill-rule="evenodd">
  <path transform="translate(-17.857 318.65)" d="m543 119s4 58-12 70-134 131-134 131l22 25 143-97 11-127-30-2z" fill="#ffc701"/>
  <path d="m525.14 437.65s4 58-12 70-134 131-134 131l22 25 143-97 11-127-30-2z" opacity=".7"/>
  <path d="m519.91 399.65-36.525 54.799s-29.261 7.2678-44.092 16.488-61.437 43.25-164.55 35.949-118.43-29.333-140.77-30.14-56.139 3.076-64.329 9.314 1.6029 25.029 1.6029 25.029 29.967 67.401 139.06 95.055 238.24-29.442 238.24-29.442l90.197-165.63-18.831-11.42z" fill="#ffc701"/>
  <path d="m517.01 404.01-33.625 50.438s-29.262 7.2796-44.094 16.5-61.421 43.238-164.53 35.938-118.44-29.319-140.78-30.125-56.122 3.0745-64.312 9.3125c-0.37177 0.28315-0.69973 0.60557-1 0.9375 19.284-2.798 47.714-2.2292 67.719 1.4062 38.391 6.9766 73.598 30.24 163.12 27.812 127.23-3.4885 142.16-43.125 159.88-47.812 24.628-6.516 71.104-16.07 57.625-64.406z" fill="#fff" opacity=".4"/>
  <path d="m106.96 554.71c21.532 18.707 54.481 39.055 103.34 51.441 11.764 2.9822 23.77 4.9616 35.813 6.1504l38.713-7.8469c-64.29 10.064-142.52-29.265-177.87-49.745z" opacity=".4"/>
  <path transform="translate(-17.857 318.65)" d="m546 120s21 55 15 69-41 94-106 124-232 26-236 18 0 76 101 107 230.09-36.907 253-59c29-28 84-100 68-154s-28-38-37-53-19-44-19-56-38 4-39 4z" fill="#ffc701"/>
  <path d="m533.7244,527.63751c-15.19469,29.64786-47.22491,81.21438-96.59375,104-64.99999,30-232,26-236,18-1-2-1.48437,1.76562-.09375,9l.03125.125 2.0625,6.875c-1e-005,0-.16245.01503-.375.09375 .10368.36147.23276.7547.34375,1.125 .1469.48927.27735.96461.4375,1.46875 .28804.90672.63602,1.86067.96875,2.8125 .11184.31995.19543.644.3125.96875 .2259.62845.50411,1.26062.75,1.90625 .28355.74248.53272,1.48628.84375,2.25 .2204.54264.48407,1.10358.71875,1.65625 .31499.73966.6274,1.46236.96875,2.21875 .16217.36044.3317.72974.5,1.09375 1.09177,2.36133 2.29104,4.79282 3.65625,7.28125 .03561.06477.0892.12265.125.1875 .01604.0291.01517.06463.03125.09375 .36199.65442.74306,1.30751 1.125,1.96875 .03524.0611.05833.12634.09375.1875 .4036.69603.82377,1.39109 1.25,2.09375 .45547.75087.92431,1.52383 1.40625,2.28125l.03125.03125c.46162.72508.91959,1.45729 1.40625,2.1875h.03125c40.79912,17.90201 185.46875-16.4375 250.375-63.90625 45.69018-33.41522 60.67589-79.84139 65.59375-106z" opacity=".6"/>
  <path d="m559.8 430.18c-1.6143 0.02818-3.4144 0.2431-5.3125 0.5625 6.271 19.255 36.347 112.97 33.656 130.91-3 20-34.834 92.7-87 124-35 21-111 54-138 59-17.088 3.1644-50.527 7.8176-76.656 6.4688 4.9482 1.9837 10.145 3.8396 15.656 5.5312 101 31 230.09-36.907 253-59 29-28 84-100 68-154s-28-38-37-53-19-44-19-56c0-3.375-3.0006-4.5446-7.3438-4.4688z" opacity=".4"/>
  <path d="m533.14 448.65s-19 19-14 37 22 62-41 112-246 137-369 42c-35-40-15-66-15-66s19.987-2.8903 28-2c10-3 57 0 101 2 58.91-1.1578 220-76 251-105 0 0 38-46 39-54s27 16 28 23-8 10-8 11z" fill="#ffc701"/>
  <path d="m514.6 413.04c-0.80859 0.0957-1.3438 0.59375-1.4688 1.5938-1 8-39 54-39 54-31 29-192.09 103.84-251 105-44-2-91-5-101-2-8.0129-0.89033-28 2-28 2s-0.36592 0.5276-0.90625 1.4375c10.959 3.2069 30.901 7.6742 63.156 8.5312 74.391 1.9766 105.63-2.0625 170.13-27.188 67.63-26.344 158.32-60.2 193.88-141.06-2.4106-1.5402-4.4805-2.4665-5.7812-2.3125z" fill="#fff" opacity=".4"/>
  <path d="m518.58 482.9c-8.1852 28.135-41.314 102.58-168.44 145.75-155.45 52.793-193.32 22.434-243.53 7.9688 0.81945 0.99799 1.642 2.015 2.5312 3.0312 123 95 306 8 369-42s46-94 41-112c-0.25461-0.91661-0.42668-1.8308-0.5625-2.75z" opacity=".4"/>
  <path d="m534.47 391.43c-5.75-1.5-25.758 14.304-25.405 19.595 0.35183 5.2839 19.466 22.416 31.574 26.554 4 1 26-1 27-5s1-21-3-25-23.478-14.403-30.169-16.149z" fill="#884a13"/>
  <path d="m534.47 391.43c-5.75-1.5-25.758 14.304-25.405 19.595 0.35183 5.2839 19.466 22.416 31.574 26.554 4 1 26-1 27-5s1-21-3-25-23.478-14.403-30.169-16.149z" fill="#884a13"/>
  <path d="m533.24 391.34c-6.9347 0.51968-24.487 14.727-24.156 19.688 0.14153 2.1255 3.3387 6.1571 7.875 10.5 0.28631-8.338 4.4234-20.435 23.719-27.75-2.4966-1.1074-4.6732-1.9487-6.1875-2.3438-0.35938-0.09375-0.78769-0.1284-1.25-0.09375z" fill="#fff" opacity=".3"/>
  <path d="m564.58 407.52c0.15241 18.259-15.534 25.959-26.375 29.094 0.83558 0.37004 1.6536 0.70089 2.4375 0.96875 4 1 26-1 27-5s1-21-3-25l-0.0625-0.0625z" opacity=".4"/>
 </g>
</svg>
