<?xml version='1.0' encoding='utf-8'?>
<svg xmlns="http://www.w3.org/2000/svg" xmlns:xlink="http://www.w3.org/1999/xlink" enable-background="new 0 0 53.6 42.15" version="1.1" viewBox="0 0 53.6 42.15">
<symbol id="ax" viewBox="0 -13.45 12.4 13.45">
		<path d="m12.4-13.45c-3.1 1.3-5.733 3.117-7.9 5.45-2.2 2.367-3.7 5.033-4.5 8l0.4-0.05 0.7-0.5c0.533-1.733 1.383-3.483 2.55-5.25 2.267-3.5 5.183-6.05 8.75-7.65z" clip-rule="evenodd" fill-rule="evenodd"/>
</symbol>
<symbol id="ay" viewBox="0 -13.6 23.65 13.6">
			<linearGradient id="ak" x1="-23.266" x2="-7.9905" y1="-33.543" y2="-33.543" gradientTransform="matrix(1 -.0033 .0033 1 26.788 26.686)" gradientUnits="userSpaceOnUse">
			<stop stop-color="#fff" offset="0"/>
			<stop stop-color="#A0DAF2" offset="1"/>
		</linearGradient>
		<path d="m23.65-1.85l-3.1-11.65-2.3-0.1c-0.9 0-1.8 0.05-2.7 0.15-1.1 0.167-2.316 0.534-3.65 1.1-1.4 0.567-2.566 1.184-3.5 1.85-3 2.133-5.3 4.533-6.9 7.2-0.8 1.3-1.3 2.4-1.5 3.3l2.6-0.6c4.333-0.9 9.6-1.35 15.8-1.35 2.367 0 4.117 0.033 5.25 0.1z" clip-rule="evenodd" fill="url(#ak)" fill-rule="evenodd"/>
</symbol>
<symbol id="az" viewBox="0.1 -4.017 1.723 4.017">
		<path d="m1.1-0.9c0.067 0.6 0.183 0.9 0.35 0.9 0.167-0.033 0.283-0.267 0.35-0.7 0.133-1.267-0.3-2.3-1.3-3.1-0.4-0.333-0.5-0.283-0.3 0.15 0.5 1.033 0.8 1.95 0.9 2.75z" clip-rule="evenodd" fill="#fff" fill-rule="evenodd"/>
</symbol>
<symbol id="ba" viewBox="0.088 -3.144 1.514 3.595">
		<path d="m1.6-0.6c0.033-1-0.367-1.8-1.2-2.4-0.333-0.233-0.4-0.183-0.2 0.15 0.433 0.8 0.716 1.517 0.85 2.15 0.333 1.5 0.517 1.533 0.55 0.1z" clip-rule="evenodd" fill="#fff" fill-rule="evenodd"/>
</symbol>
<symbol id="bb" viewBox="0.083 -3.302 1.101 3.769">
		<path d="m1.1-0.5c0.233-1-0.017-1.867-0.75-2.6-0.267-0.3-0.333-0.267-0.2 0.1 0.267 0.833 0.4 1.583 0.4 2.25 0.033 1.533 0.217 1.617 0.55 0.25z" clip-rule="evenodd" fill="#fff" fill-rule="evenodd"/>
</symbol>
<symbol id="bc" viewBox="0.082 -2.739 2.253 3.152">
		<path d="m2.2-0.65c-0.233-1-0.833-1.667-1.8-2-0.367-0.167-0.417-0.1-0.15 0.2 0.6 0.633 1.05 1.25 1.35 1.85 0.7 1.367 0.9 1.35 0.6-0.05z" clip-rule="evenodd" fill="#fff" fill-rule="evenodd"/>
</symbol>
<symbol id="bd" viewBox="0.09 -2.739 2.25 3.227">
		<path d="m2.2-0.6c-0.233-1-0.817-1.683-1.75-2.05-0.4-0.167-0.467-0.1-0.2 0.2 0.633 0.7 1.1 1.333 1.4 1.9 0.667 1.4 0.85 1.383 0.55-0.05z" clip-rule="evenodd" fill="#fff" fill-rule="evenodd"/>
</symbol>
<symbol id="be" viewBox="0.033 -2.529 1.087 2.893">
		<path d="m1.1-0.4c0.1-0.8-0.167-1.467-0.8-2-0.267-0.2-0.333-0.167-0.2 0.1 0.3 0.633 0.483 1.216 0.55 1.75 0.167 1.167 0.317 1.217 0.45 0.15z" clip-rule="evenodd" fill="#fff" fill-rule="evenodd"/>
</symbol>
<symbol id="bf" viewBox="0.033 -2.553 1.087 2.917">
		<path d="m1.1-0.4c0.1-0.8-0.167-1.467-0.8-2-0.267-0.233-0.333-0.2-0.2 0.1 0.3 0.667 0.483 1.25 0.55 1.75 0.167 1.167 0.317 1.217 0.45 0.15z" clip-rule="evenodd" fill="#fff" fill-rule="evenodd"/>
</symbol>
<symbol id="bn" viewBox="0.08 -2.346 1.435 2.734">
		<path d="m1.5-0.45c-0.067-0.8-0.45-1.4-1.15-1.8-0.3-0.167-0.35-0.117-0.15 0.15 0.4 0.6 0.683 1.133 0.85 1.6 0.367 1.167 0.517 1.183 0.45 0.05z" clip-rule="evenodd" fill="#fff" fill-rule="evenodd"/>
</symbol>
		<linearGradient id="ap" x1=".25" x2="44.75" y1="19.826" y2="19.826" gradientTransform="matrix(.75 0 0 .75 10 15.65)" gradientUnits="userSpaceOnUse">
		<stop stop-color="#557C8C" offset="0"/>
		<stop stop-color="#86A7B5" offset="1"/>
	</linearGradient>
	<path d="m38.65 28.325c3.274 0.6 4.912 1.337 4.912 2.212 0 0.851-1.638 1.588-4.912 2.213-3.251 0.6-7.175 0.9-11.775 0.9-4.625 0-8.563-0.301-11.813-0.9s-4.875-1.338-4.875-2.213 1.625-1.612 4.875-2.212c3.275-0.625 7.212-0.938 11.813-0.938 4.601 1e-3 8.524 0.313 11.775 0.938z" clip-rule="evenodd" fill="url(#ap)" fill-rule="evenodd"/>
	<path d="m43.6 30.275h-0.75c0-0.7-1.55-1.301-4.65-1.801s-6.861-0.75-11.287-0.75c-4.425 0-8.187 0.25-11.287 0.75-3.125 0.5-4.688 1.101-4.688 1.801h-0.938c0.225-0.801 1.962-1.488 5.213-2.063 3.25-0.575 7.112-0.863 11.587-0.863s8.351 0.288 11.626 0.863c3.224 0.575 4.949 1.263 5.174 2.063z" clip-rule="evenodd" fill="#B6E0F2" fill-rule="evenodd"/>
		<radialGradient id="aq" cx="24.272" cy="-8.2578" r="4.2993" gradientTransform="matrix(.5081 .5517 .5757 -.5146 19.372 7.272)" gradientUnits="userSpaceOnUse">
		<stop stop-color="#BD325A" offset="0"/>
		<stop stop-color="#70102E" offset="1"/>
	</radialGradient>
	<path d="m29.912 24.35c0.775 1.15 0.575 2.238-0.6 3.263-0.7 0.625-1.463 0.9-2.287 0.825-0.726-0.075-1.288-0.388-1.688-0.938-0.375-0.55-0.5-1.15-0.375-1.8 0.125-0.675 0.5-1.2 1.125-1.575 0.8-0.5 1.55-0.725 2.25-0.675 0.676 0.075 1.2 0.375 1.575 0.9z" clip-rule="evenodd" fill="url(#aq)" fill-rule="evenodd"/>
		<radialGradient id="ar" cx="26.599" cy="-13.41" r="4.406" gradientTransform="matrix(.5037 .5557 .5593 -.507 24.952 2.0956)" gradientUnits="userSpaceOnUse">
		<stop stop-color="#821725" offset="0"/>
		<stop stop-color="#5C1320" offset="1"/>
	</radialGradient>
	<path d="m33.775 23.15c0.375 0.524 0.525 1.087 0.449 1.688-0.1 0.6-0.425 1.137-0.975 1.612-0.7 0.625-1.463 0.899-2.287 0.825-0.775-0.075-1.35-0.4-1.726-0.976-0.399-0.575-0.537-1.188-0.412-1.837 0.125-0.676 0.5-1.213 1.124-1.613 0.801-0.5 1.551-0.712 2.25-0.637 0.677 0.075 1.202 0.388 1.577 0.938z" clip-rule="evenodd" fill="url(#ar)" fill-rule="evenodd"/>
	<path d="m30.4 23.15c0.8-0.375 0.987-0.188 0.563 0.563-0.425 0.8-0.813 1.162-1.162 1.087-0.301-0.075-0.363-0.325-0.188-0.75 0.175-0.45 0.437-0.75 0.787-0.9z" clip-rule="evenodd" fill="#AD5D80" fill-rule="evenodd"/>
		<use transform="matrix(.75 0 0 -.75 32.6 24.55)" x="0.08" y="-2.346" width="1.435" height="2.734" enable-background="new" opacity=".3281" xlink:href="#bn"/>
		<radialGradient id="as" cx="12.383" cy="8.1099" r="4.4" gradientTransform="matrix(.5971 .4539 .458 -.6025 2.604 25.379)" gradientUnits="userSpaceOnUse">
		<stop stop-color="#821725" offset="0"/>
		<stop stop-color="#5C1320" offset="1"/>
	</radialGradient>
	<path d="m16.525 25.063c0.449 0.45 0.687 0.975 0.712 1.575s-0.188 1.188-0.638 1.763c-0.575 0.75-1.274 1.149-2.1 1.199-0.775 0.075-1.413-0.138-1.912-0.637-0.475-0.476-0.713-1.038-0.713-1.688 0-0.7 0.275-1.301 0.825-1.801 0.675-0.649 1.375-1 2.1-1.05 0.676-0.049 1.251 0.163 1.726 0.639z" clip-rule="evenodd" fill="url(#as)" fill-rule="evenodd"/>
	<path d="m13.188 25.662c0.725-0.524 0.95-0.362 0.675 0.488-0.3 0.874-0.625 1.287-0.975 1.237-0.3-0.025-0.413-0.263-0.338-0.713 0.1-0.449 0.313-0.786 0.638-1.012z" clip-rule="evenodd" fill="#AD5D80" fill-rule="evenodd"/>
		<use transform="matrix(.75 0 0 -.75 15.95 26.45)" x="0.033" y="-2.553" width="1.087" height="2.917" enable-background="new" opacity=".3281" xlink:href="#bf"/>
		<radialGradient id="at" cx="25.345" cy="9.876" r="4.4" gradientTransform="matrix(.5971 .4539 .458 -.6025 .9935 27.497)" gradientUnits="userSpaceOnUse">
		<stop stop-color="#BD325A" offset="0"/>
		<stop stop-color="#40091A" offset="1"/>
	</radialGradient>
	<path d="m23.463 32c0.475 0.475 0.712 1 0.712 1.575 0.025 0.625-0.2 1.225-0.675 1.8-0.575 0.725-1.275 1.112-2.1 1.162-0.75 0.075-1.375-0.137-1.875-0.637-0.475-0.476-0.713-1.038-0.713-1.688 0-0.701 0.275-1.301 0.825-1.801 0.7-0.625 1.4-0.975 2.1-1.05 0.675-0.048 1.251 0.163 1.726 0.639z" clip-rule="evenodd" fill="url(#at)" fill-rule="evenodd"/>
	<path d="m20.125 32.6c0.7-0.524 0.925-0.362 0.675 0.488-0.275 0.875-0.6 1.3-0.975 1.274-0.3-0.024-0.413-0.275-0.338-0.75 0.1-0.45 0.313-0.787 0.638-1.012z" clip-rule="evenodd" fill="#F797B1" fill-rule="evenodd"/>
		<use transform="matrix(.75 0 0 -.75 22.85 33.4)" x="0.033" y="-2.529" width="1.087" height="2.893" enable-background="new" opacity=".3281" xlink:href="#be"/>
		<linearGradient id="au" x1="28.787" x2="31.712" y1="24.65" y2="24.65" gradientTransform="matrix(.75 0 0 .75 10 15.65)" gradientUnits="userSpaceOnUse">
		<stop stop-color="#FFF9D1" offset="0"/>
		<stop stop-color="#FFF08E" offset="1"/>
	</linearGradient>
	<path d="m32.613 35.188l-1.013 0.075 0.188-2.25 1.014 0.712c0.375 0.175 0.711 0.301 1.012 0.375l-1.201 1.088z" clip-rule="evenodd" fill="url(#au)" fill-rule="evenodd"/>
		<linearGradient id="av" x1="19.212" x2="26.087" y1="30.396" y2="30.396" gradientTransform="matrix(.75 0 0 .75 10 15.65)" gradientUnits="userSpaceOnUse">
		<stop stop-color="#FFF9D1" offset="0"/>
		<stop stop-color="#FFF08E" offset="1"/>
	</linearGradient>
	<path d="m28.188 40.175c-1.075 0.45-2.325 0.487-3.75 0.112 0.25-0.6 0.525-1.112 0.825-1.537l1.537-2.4 1.05 1.5c0.351 0.426 0.926 0.875 1.725 1.351l-1.387 0.974z" clip-rule="evenodd" fill="url(#av)" fill-rule="evenodd"/>
	<path d="m33.324 30.125l2.289-4.987 1.836 0.975 0.414 1.275c0.175 1.149-0.039 2.399-0.639 3.75-0.475 1.175-0.962 1.95-1.463 2.325l-0.563 0.225-2.475-0.563 0.601-3z" clip-rule="evenodd" fill="#F5ECA2" fill-rule="evenodd"/>
	<path d="m34.676 25.1c0.774-0.199 1.273 0.088 1.5 0.863 0.225 0.699 0.199 1.624-0.076 2.774-0.674 2.9-1.787 4.338-3.338 4.313-1.149 0-1.449-1.225-0.898-3.675 0.523-2.475 1.46-3.9 2.812-4.275z" clip-rule="evenodd" fill="#FFFAC4" fill-rule="evenodd"/>
		<linearGradient id="aw" x1="19.288" x2="26.913" y1="32.225" y2="32.225" gradientTransform="matrix(.75 0 0 .75 10 15.65)" gradientUnits="userSpaceOnUse">
		<stop stop-color="#E63C39" offset="0"/>
		<stop stop-color="#821E00" offset="1"/>
	</linearGradient>
	<path d="m29.35 38.787l0.826 1.313c-0.301 0.15-0.813 0.325-1.538 0.525-0.45 0.1-1.188 0.175-2.213 0.225h-1.425l-0.525-0.787 1.5-0.112c1-0.052 2.125-0.439 3.375-1.164z" clip-rule="evenodd" fill="url(#aw)" fill-rule="evenodd"/>
		<linearGradient id="bg" x1="4.3999" x2="11.234" y1="-19.825" y2="-19.825" gradientTransform="matrix(-.5762 .4801 -.4801 -.5762 9.9992 15.65)" gradientUnits="userSpaceOnUse">
		<stop stop-color="#FFF9D1" offset="0"/>
		<stop stop-color="#FFF08E" offset="1"/>
	</linearGradient>
	<path d="m15.813 27.763l0.675 4.537-1.763-0.487c-0.325-0.075-0.787-0.088-1.387-0.037l-0.788 0.112 0.45-1.688c0.325-0.625 0.887-1.213 1.688-1.763 0.425-0.299 0.8-0.525 1.125-0.674z" clip-rule="evenodd" fill="url(#bg)" fill-rule="evenodd"/>
		<linearGradient id="bh" x1="4.4639" x2="12.079" y1="-17.984" y2="-17.984" gradientTransform="matrix(-.5762 .4801 -.4801 -.5762 10 15.65)" gradientUnits="userSpaceOnUse">
		<stop stop-color="#E63C39" offset="0"/>
		<stop stop-color="#821E00" offset="1"/>
	</linearGradient>
	<path d="m13 32.037l-1.5-0.449c0.15-0.325 0.438-0.788 0.862-1.388 0.275-0.375 0.8-0.9 1.575-1.575l1.088-0.938 0.899 0.263-1.086 1.05c-0.726 0.675-1.338 1.688-1.838 3.037z" clip-rule="evenodd" fill="url(#bh)" fill-rule="evenodd"/>
		<linearGradient id="bi" x1="27.963" x2="31.738" y1="25.725" y2="25.725" gradientTransform="matrix(.75 0 0 .75 10 15.65)" gradientUnits="userSpaceOnUse">
		<stop stop-color="#E63C39" offset="0"/>
		<stop stop-color="#821E00" offset="1"/>
	</linearGradient>
	<path d="m32.725 35.787c-0.375-0.149-0.725-0.312-1.049-0.487-0.676-0.325-0.876-0.525-0.602-0.6 0.451-0.125 1.363-0.325 2.738-0.601-0.349 0.676-0.712 1.239-1.087 1.688z" clip-rule="evenodd" fill="url(#bi)" fill-rule="evenodd"/>
		<linearGradient id="bj" x1="18.068" x2="9.6426" y1="15.913" y2="14.367" gradientTransform="matrix(.75 0 0 .75 10 15.65)" gradientUnits="userSpaceOnUse">
		<stop stop-color="#E63C39" offset="0"/>
		<stop stop-color="#821E00" offset="1"/>
	</linearGradient>
	<path d="m19.263 26.037l-4.8-2.024c0.325-0.351 0.812-0.7 1.462-1.05 1.3-0.726 2.788-1.125 4.463-1.201 1.475-0.075 2.962 0.488 4.462 1.688 1.7 1.324 2.476 2.899 2.325 4.725-0.075 1.3-0.35 2.55-0.825 3.75-0.25 0.6-0.488 1.075-0.712 1.425l-6.375-7.313z" clip-rule="evenodd" fill="url(#bj)" fill-rule="evenodd"/>
		<linearGradient id="bk" x1="22.884" x2="9.6597" y1="14.344" y2="18.57" gradientTransform="matrix(.75 0 0 .75 10 15.65)" gradientUnits="userSpaceOnUse">
		<stop stop-color="#FFF9D1" offset="0"/>
		<stop stop-color="#FFF08E" offset="1"/>
	</linearGradient>
	<path d="m14.463 24.013c0.549-0.125 1.212-0.213 1.987-0.263 1.55-0.125 2.9-0.05 4.05 0.225 1.4 0.325 2.6 0.95 3.6 1.875 0.976 0.9 1.6 1.913 1.875 3.038 0.351 1.475 0.238 2.962-0.337 4.462-2.476-2.274-4.313-3.912-5.513-4.912-1.3-1.076-3.187-2.55-5.662-4.425z" clip-rule="evenodd" fill="url(#bk)" fill-rule="evenodd"/>
	<path d="m20.8 28.1c0.1-0.125 0.212-0.237 0.338-0.337 0.275-0.2 0.524-0.25 0.75-0.15 0.225 0.125 0.3 0.25 0.225 0.375-0.05 0.101-0.163 0.162-0.337 0.188l-0.976-0.076z" clip-rule="evenodd" fill="#733913" fill-rule="evenodd"/>
	<path d="m22.075 29.375l0.524-0.112c0.375-0.025 0.576 0.05 0.601 0.225 0.05 0.275-0.325 0.237-1.125-0.113z" clip-rule="evenodd" fill="#733913" fill-rule="evenodd"/>
	<path d="m19.45 27.237c-0.05-0.175-0.088-0.362-0.112-0.563-0.025-0.375 0.05-0.563 0.225-0.563 0.599 0.051 0.562 0.426-0.113 1.126z" clip-rule="evenodd" fill="#733913" fill-rule="evenodd"/>
	<path d="m19.675 26.263c-0.175 0.399-0.25 0.5-0.225 0.3 0-0.125 0.037-0.213 0.112-0.263l0.113-0.037z" clip-rule="evenodd" fill="#fff" fill-rule="evenodd"/>
	<path d="m21.1 27.912c0.05-0.05 0.113-0.1 0.188-0.149 0.125-0.075 0.226-0.101 0.301-0.075 0.123 0.075-0.039 0.15-0.489 0.224z" clip-rule="evenodd" fill="#fff" fill-rule="evenodd"/>
	<path d="m22.525 29.375l0.262-0.037c0.175 0 0.263 0.037 0.263 0.112 0 0.1-0.175 0.075-0.525-0.075z" clip-rule="evenodd" fill="#fff" fill-rule="evenodd"/>
		<linearGradient id="bl" x1="26.653" x2="25.732" y1="10.531" y2="4.1302" gradientTransform="matrix(.75 0 0 .75 10 15.65)" gradientUnits="userSpaceOnUse">
		<stop stop-color="#E63C39" offset="0"/>
		<stop stop-color="#821E00" offset="1"/>
	</linearGradient>
	<path d="m30.063 20l0.262-4.35 1.125 0.9c0.826 0.85 1.476 1.925 1.951 3.225 0.425 1.15 0.399 2.488-0.076 4.012-0.523 1.7-1.461 2.726-2.813 3.075-0.949 0.275-1.912 0.375-2.887 0.3l-1.2-0.188 3.638-6.974z" clip-rule="evenodd" fill="url(#bl)" fill-rule="evenodd"/>
		<linearGradient id="bm" x1="29.053" x2="22.828" y1="13.749" y2="5.2738" gradientTransform="matrix(.75 0 0 .75 10 15.65)" gradientUnits="userSpaceOnUse">
		<stop stop-color="#FFF9D1" offset="0"/>
		<stop stop-color="#FFF08E" offset="1"/>
	</linearGradient>
	<path d="m30.324 15.65c0.876 1.6 1.389 3.2 1.539 4.8 0.1 1.2-0.051 2.313-0.451 3.337-0.375 1.025-0.938 1.788-1.688 2.288-1 0.675-2.1 0.975-3.3 0.899 1.025-2.575 1.737-4.462 2.138-5.662 0.451-1.325 1.039-3.212 1.762-5.662z" clip-rule="evenodd" fill="url(#bm)" fill-rule="evenodd"/>
		<radialGradient id="ah" cx="17.533" cy="-14.374" r="5.5822" gradientTransform="matrix(.4222 .6199 .6229 -.4243 27.863 3.4834)" gradientUnits="userSpaceOnUse">
		<stop stop-color="#821725" offset="0"/>
		<stop stop-color="#5C1320" offset="1"/>
	</radialGradient>
	<path d="m30.1 20.3c0.375 0.725 0.451 1.45 0.225 2.175-0.199 0.726-0.699 1.351-1.499 1.875-1 0.65-2 0.851-3 0.601-0.95-0.226-1.612-0.738-1.987-1.538-0.4-0.75-0.463-1.524-0.188-2.325 0.275-0.85 0.837-1.462 1.688-1.837 1.1-0.5 2.087-0.638 2.962-0.413 0.799 0.225 1.399 0.712 1.799 1.462z" clip-rule="evenodd" fill="url(#ah)" fill-rule="evenodd"/>
	<path d="m25.825 19.663c1.075-0.325 1.287-0.05 0.638 0.825-0.676 0.95-1.225 1.338-1.65 1.163-0.35-0.15-0.388-0.475-0.112-0.975 0.274-0.526 0.649-0.863 1.124-1.013z" clip-rule="evenodd" fill="#945772" fill-rule="evenodd"/>
		<use transform="matrix(.75 0 0 -.75 28.05 22)" x="0.09" y="-2.739" width="2.25" height="3.227" enable-background="new" opacity=".3281" xlink:href="#bd"/>
	<path d="m20.275 20.75l3.412-4.313 1.537 1.387c0.125 0.325 0.163 0.775 0.113 1.35-0.125 1.15-0.638 2.313-1.538 3.487-0.75 1-1.4 1.638-1.95 1.913l-0.637 0.075-2.25-1.163 1.313-2.736z" clip-rule="evenodd" fill="#F5ECA2" fill-rule="evenodd"/>
	<path d="m22.787 16.175c0.8-0.025 1.225 0.375 1.275 1.2 0.025 0.75-0.225 1.65-0.75 2.7-1.35 2.625-2.788 3.75-4.313 3.375-1.1-0.3-1.1-1.575 0-3.825 1.126-2.275 2.388-3.425 3.788-3.45z" clip-rule="evenodd" fill="#FFFAC4" fill-rule="evenodd"/>
		<radialGradient id="ai" cx="32.991" cy="1.4785" r="5.5822" gradientTransform="matrix(.4222 .6199 .6229 -.4243 8.1626 16.902)" gradientUnits="userSpaceOnUse">
		<stop stop-color="#BD325A" offset="0"/>
		<stop stop-color="#821337" offset="1"/>
	</radialGradient>
	<path d="m26.763 36.575c0.375 0.75 0.462 1.475 0.263 2.175-0.2 0.75-0.7 1.388-1.5 1.912-1 0.65-2 0.838-3 0.563-0.951-0.225-1.613-0.725-1.988-1.5-0.399-0.75-0.462-1.525-0.188-2.324 0.275-0.851 0.838-1.463 1.688-1.838 1.075-0.5 2.05-0.638 2.926-0.412 0.823 0.199 1.424 0.674 1.799 1.424z" clip-rule="evenodd" fill="url(#ai)" fill-rule="evenodd"/>
	<path d="m22.525 35.975c1.075-0.324 1.287-0.05 0.637 0.825-0.7 0.95-1.262 1.338-1.688 1.163-0.35-0.15-0.375-0.476-0.074-0.976 0.275-0.524 0.65-0.862 1.125-1.012z" clip-rule="evenodd" fill="#F797B1" fill-rule="evenodd"/>
		<use transform="matrix(.75 0 0 -.75 24.75 38.25)" x="0.082" y="-2.739" width="2.253" height="3.152" enable-background="new" opacity=".3281" xlink:href="#bc"/>
	<path d="m33.176 34.925l-4.576 4.838-1.462-0.863c-0.101-0.226-0.125-0.538-0.075-0.938 0.075-0.775 0.438-1.575 1.088-2.4 0.699-0.9 1.487-1.45 2.361-1.65 0.426-0.1 0.789-0.112 1.088-0.037l1.576 1.05z" clip-rule="evenodd" fill="#FFFAC4" fill-rule="evenodd"/>
	<path d="m33.438 35.487c0 0.274-0.15 0.75-0.449 1.425-0.351 0.75-0.738 1.351-1.164 1.801-0.799 0.85-1.562 1.313-2.287 1.387-0.675 0.025-1.112-0.237-1.313-0.787-0.175-0.4-0.125-0.875 0.15-1.425 0.275-0.5 0.813-1.2 1.613-2.101 0.6-0.649 1.324-1.012 2.174-1.087 0.851-0.051 1.276 0.212 1.276 0.787z" clip-rule="evenodd" fill="#F5ECA2" fill-rule="evenodd"/>
		<radialGradient id="aj" cx="33.566" cy="-8.896" r="5.5696" gradientTransform="matrix(.6447 .3831 .3861 -.6497 16.843 4.1349)" gradientUnits="userSpaceOnUse">
		<stop stop-color="#821725" offset="0"/>
		<stop stop-color="#5C1320" offset="1"/>
	</radialGradient>
	<path d="m38.426 21.05c0.649 0.525 1.024 1.15 1.125 1.875 0.124 0.75-0.063 1.525-0.563 2.325-0.626 1-1.451 1.612-2.477 1.838-0.925 0.175-1.736-0.013-2.438-0.563-0.673-0.525-1.06-1.2-1.161-2.025-0.124-0.9 0.125-1.688 0.75-2.362 0.775-0.925 1.613-1.476 2.514-1.65 0.824-0.151 1.574 0.037 2.25 0.562z" clip-rule="evenodd" fill="url(#aj)" fill-rule="evenodd"/>
	<path d="m34.301 22.287c0.824-0.75 1.125-0.587 0.898 0.488-0.225 1.149-0.563 1.725-1.012 1.725-0.375 0.025-0.537-0.263-0.488-0.862 0.027-0.575 0.227-1.026 0.602-1.351z" clip-rule="evenodd" fill="#AD5D80" fill-rule="evenodd"/>
		<use transform="matrix(.75 0 0 -.75 38.15 22.75)" x="0.083" y="-3.302" width="1.101" height="3.769" enable-background="new" opacity=".3281" xlink:href="#bb"/>
		<radialGradient id="al" cx="24.691" cy="2.3423" r="5.5786" gradientTransform="matrix(.5592 .4998 .5035 -.5634 7.6501 18.279)" gradientUnits="userSpaceOnUse">
		<stop stop-color="#821725" offset="0"/>
		<stop stop-color="#5C1320" offset="1"/>
	</radialGradient>
	<path d="m26.275 28.25c0.524 0.625 0.774 1.313 0.75 2.063-0.025 0.775-0.363 1.5-1.013 2.175-0.8 0.875-1.726 1.313-2.775 1.313-0.95 0-1.712-0.337-2.287-1.013-0.55-0.625-0.788-1.35-0.713-2.175 0.05-0.899 0.438-1.638 1.163-2.212 0.95-0.75 1.875-1.113 2.774-1.088 0.851 0 1.551 0.312 2.101 0.937z" clip-rule="evenodd" fill="url(#al)" fill-rule="evenodd"/>
	<path d="m22 28.7c0.95-0.601 1.225-0.388 0.825 0.638-0.45 1.1-0.9 1.612-1.351 1.537-0.375-0.075-0.487-0.4-0.337-0.975 0.15-0.55 0.438-0.95 0.863-1.2z" clip-rule="evenodd" fill="#AD5D80" fill-rule="evenodd"/>
		<use transform="matrix(.75 0 0 -.75 25.2 30)" x="0.088" y="-3.144" width="1.514" height="3.595" enable-background="new" opacity=".3281" xlink:href="#ba"/>
	<path d="m17.725 31.925l1.725-4.125 1.575 0.75 0.412 1.013c0.175 0.9 0.037 1.912-0.412 3.037-0.375 0.95-0.75 1.588-1.125 1.913-0.201 0.175-0.363 0.25-0.488 0.225l-2.1-0.412 0.413-2.401z" clip-rule="evenodd" fill="#F5ECA2" fill-rule="evenodd"/>
	<path d="m18.662 27.8c1.351-0.425 1.801 0.537 1.351 2.888-0.475 2.35-1.363 3.55-2.663 3.6-0.95 0.051-1.25-0.938-0.899-2.962 0.349-2.001 1.086-3.177 2.211-3.526z" clip-rule="evenodd" fill="#FFFAC4" fill-rule="evenodd"/>
		<linearGradient id="am" x1="10.312" x2="15.688" y1="27.656" y2="27.656" gradientTransform="matrix(.75 0 0 .75 10 15.65)" gradientUnits="userSpaceOnUse">
		<stop stop-color="#FFF9D1" offset="0"/>
		<stop stop-color="#FFF08E" offset="1"/>
	</linearGradient>
	<path d="m21.737 35.75l-0.862 2.475c-0.35 0.125-0.837 0.113-1.463-0.037-0.399-0.1-0.8-0.438-1.199-1.013l-0.488-0.825 0.45-1.875 2.025 0.15c0.5-0.05 0.875-0.037 1.125 0.037l0.337 0.788 0.075 0.3z" clip-rule="evenodd" fill="url(#am)" fill-rule="evenodd"/>
		<linearGradient id="an" x1="8.9502" x2="14.45" y1="28.125" y2="28.125" gradientTransform="matrix(.75 0 0 .75 10 15.65)" gradientUnits="userSpaceOnUse">
		<stop stop-color="#E63C39" offset="0"/>
		<stop stop-color="#821E00" offset="1"/>
	</linearGradient>
	<path d="m18.175 34.475l0.263 0.863c0.225 0.675 0.5 1.274 0.825 1.8 0.45 0.725 0.987 1.087 1.612 1.087l-2.063 0.788c-0.5-0.275-0.975-0.7-1.425-1.275-0.4-0.476-0.613-1.075-0.638-1.8l0.037-0.9 1.389-0.563z" clip-rule="evenodd" fill="url(#an)" fill-rule="evenodd"/>
	<path d="m17.237 31.25l0.487-3.9-1.987 0.263c0.125-0.2 0.3-0.4 0.525-0.6 0.475-0.4 1.013-0.601 1.612-0.601 0.75 0 1.388 0.226 1.912 0.676 0.525 0.475 0.775 1.087 0.75 1.837-0.024 1.025-0.225 1.913-0.6 2.663-0.2 0.375-0.4 0.649-0.6 0.824-1.2 0.525-1.875 0.737-2.025 0.638-0.1-0.05-0.137-0.362-0.112-0.938l0.038-0.862z" clip-rule="evenodd" fill="#F5ECA2" fill-rule="evenodd"/>
	<path d="m16.9 26.675c1.45-0.274 2.362 0.162 2.737 1.313 0.325 0.976 0.237 2.101-0.263 3.375-0.4 1.024-1.063 1.6-1.987 1.726-0.85 0.125-1.625-0.15-2.325-0.825-0.65-0.601-0.75-1.638-0.3-3.112 0.475-1.477 1.188-2.302 2.138-2.477z" clip-rule="evenodd" fill="#FFFAC4" fill-rule="evenodd"/>
		<radialGradient id="ao" cx="31.251" cy="-1.5864" r="6.8829" gradientTransform="matrix(.5935 .4585 .4622 -.5983 11.461 13.76)" gradientUnits="userSpaceOnUse">
		<stop stop-color="#821725" offset="0"/>
		<stop stop-color="#5C1320" offset="1"/>
	</radialGradient>
	<path d="m33.662 27.425c0.726 0.725 1.101 1.55 1.125 2.476 0.025 0.925-0.325 1.85-1.049 2.774-0.9 1.15-2.001 1.763-3.301 1.838-1.175 0.075-2.15-0.263-2.925-1.013-0.726-0.75-1.088-1.638-1.088-2.662 0-1.101 0.425-2.038 1.275-2.813 1.1-1.001 2.212-1.538 3.337-1.613 1.027-0.074 1.902 0.263 2.626 1.013z" clip-rule="evenodd" fill="url(#ao)" fill-rule="evenodd"/>
	<path d="m28.45 28.325c1.124-0.8 1.475-0.551 1.05 0.75-0.45 1.375-0.95 2.037-1.5 1.987-0.475-0.05-0.638-0.438-0.487-1.162 0.125-0.7 0.437-1.225 0.937-1.575z" clip-rule="evenodd" fill="#AD5D80" fill-rule="evenodd"/>
		<use transform="matrix(.75 0 0 -.75 32.7 29.55)" x="0.1" y="-4.017" width="1.723" height="4.017" enable-background="new" opacity=".3281" xlink:href="#az"/>
	<path d="m40.375 29.787l0.074 3.038h-2.887c-0.175 0-0.375-0.112-0.6-0.338-0.451-0.5-0.838-1.375-1.162-2.625-0.351-1.45-0.326-2.712 0.074-3.787l0.75-1.163 2.287-0.524 1.464 5.399z" clip-rule="evenodd" fill="#F5ECA2" fill-rule="evenodd"/>
	<path d="m40.412 32.75c-1.75-0.325-2.699-1.976-2.85-4.95-0.05-1.2 0.113-2.112 0.488-2.737 0.449-0.7 1.086-0.862 1.912-0.487 1.424 0.649 2.174 2.25 2.25 4.8 0.075 2.523-0.524 3.649-1.8 3.374z" clip-rule="evenodd" fill="#FFFAC4" fill-rule="evenodd"/>
	<path d="m21.25 18.987c-0.125 0.425-0.225 0.438-0.3 0.038-0.075-0.425-0.063-0.688 0.037-0.788 0.2-0.175 0.313-0.138 0.338 0.113 0.05 0.2 0.025 0.412-0.075 0.637z" clip-rule="evenodd" fill="#D6CE83" fill-rule="evenodd"/>
	<path d="m20.612 19.813c0.075 0.05-0.1 0.237-0.524 0.563-0.15 0.1-0.275 0.138-0.375 0.112-0.125-0.025-0.15-0.112-0.075-0.262 0.05-0.15 0.2-0.288 0.45-0.413 0.249-0.125 0.425-0.125 0.524 0z" clip-rule="evenodd" fill="#D6CE83" fill-rule="evenodd"/>
	<path d="m20.575 20.487c0.225-0.125 0.275 0.038 0.149 0.488-0.1 0.425-0.262 0.65-0.487 0.675-0.175 0.025-0.188-0.15-0.037-0.525 0.125-0.35 0.25-0.562 0.375-0.638z" clip-rule="evenodd" fill="#D6CE83" fill-rule="evenodd"/>
	<path d="m21.4 20.075c0.225 0.075 0.3 0.238 0.225 0.488-0.1 0.225-0.225 0.3-0.375 0.225-0.125-0.05-0.175-0.188-0.15-0.413 0.05-0.25 0.15-0.35 0.3-0.3z" clip-rule="evenodd" fill="#D6CE83" fill-rule="evenodd"/>
	<path d="m22 18.837c0.35-0.075 0.425 0.05 0.225 0.375s-0.412 0.462-0.637 0.413c-0.201-0.025-0.238-0.15-0.113-0.375s0.3-0.362 0.525-0.413z" clip-rule="evenodd" fill="#D6CE83" fill-rule="evenodd"/>
	<path d="m39.625 26.263c0.274-0.075 0.462 0.237 0.563 0.938 0.025 0.3 0.013 0.5-0.037 0.6-0.076 0.101-0.176 0.038-0.301-0.188-0.15-0.274-0.262-0.537-0.338-0.787-0.049-0.326-0.012-0.513 0.113-0.563z" clip-rule="evenodd" fill="#D6CE83" fill-rule="evenodd"/>
	<path d="m39.775 28.025c0.074 0.074 0.063 0.162-0.037 0.262-0.076 0.075-0.2 0.113-0.375 0.113-0.15 0-0.288-0.088-0.414-0.263-0.148-0.2-0.188-0.363-0.111-0.487 0.124-0.2 0.437-0.075 0.937 0.375z" clip-rule="evenodd" fill="#D6CE83" fill-rule="evenodd"/>
	<path d="m39.887 28.662c0.126-0.024 0.188 0.05 0.188 0.226 0 0.149-0.049 0.3-0.148 0.45-0.101 0.175-0.238 0.3-0.414 0.375l-0.188-0.188c-0.1-0.075-0.062-0.238 0.113-0.488 0.15-0.199 0.3-0.325 0.449-0.375z" clip-rule="evenodd" fill="#D6CE83" fill-rule="evenodd"/>
	<path d="m40.6 29.075c0.225 0.325 0.338 0.55 0.338 0.675 0.025 0.175-0.037 0.3-0.188 0.375-0.15 0.1-0.25 0.075-0.301-0.075-0.074-0.125-0.087-0.337-0.037-0.638 0.076-0.325 0.138-0.437 0.188-0.337z" clip-rule="evenodd" fill="#D6CE83" fill-rule="evenodd"/>
	<path d="m40.824 28.662l0.188-0.037c0.15-0.025 0.264-0.013 0.338 0.037 0.101 0.101 0.15 0.226 0.15 0.375-0.025 0.15-0.125 0.237-0.301 0.263-0.175 0.025-0.312-0.063-0.412-0.263-0.074-0.199-0.062-0.325 0.037-0.375z" clip-rule="evenodd" fill="#D6CE83" fill-rule="evenodd"/>
	<path d="m40.863 27.463c0.274 0.024 0.387 0.212 0.336 0.563-0.024 0.199-0.236 0.3-0.637 0.3-0.101 0-0.101-0.138 0-0.413 0.075-0.301 0.175-0.45 0.301-0.45z" clip-rule="evenodd" fill="#D6CE83" fill-rule="evenodd"/>
	<path d="m18.025 30.088c0.074-0.251 0.262-0.413 0.563-0.488 0.275-0.074 0.387 0 0.337 0.226-0.075 0.25-0.275 0.45-0.6 0.6-0.3 0.124-0.4 0.012-0.3-0.338z" clip-rule="evenodd" fill="#D6CE83" fill-rule="evenodd"/>
	<path d="m17.838 30.125c0 0.325-0.075 0.462-0.226 0.412-0.149-0.024-0.25-0.175-0.3-0.449-0.025-0.226 0.063-0.313 0.263-0.263s0.287 0.15 0.263 0.3z" clip-rule="evenodd" fill="#D6CE83" fill-rule="evenodd"/>
	<path d="m18.775 30.388c0.575-0.025 0.7 0.149 0.375 0.524-0.125 0.15-0.351 0.125-0.676-0.074-0.125-0.051-0.137-0.138-0.037-0.263 0.076-0.1 0.188-0.163 0.338-0.187z" clip-rule="evenodd" fill="#D6CE83" fill-rule="evenodd"/>
	<path d="m43.375 30.725h0.15c-0.926 3.325-2.926 6.051-6 8.176-3.125 2.149-6.7 3.225-10.726 3.225-4.05 0-7.649-1.101-10.8-3.3-3.075-2.15-5.063-4.9-5.963-8.25l0.301 0.037c0.95 0.825 2.95 1.487 6 1.987 3.074 0.525 6.6 0.788 10.574 0.788 3.875 0 7.338-0.251 10.389-0.75 3.001-0.5 5.024-1.138 6.075-1.913z" clip-rule="evenodd" fill="#A0DAF2" fill-rule="evenodd"/>
	<path d="m42.063 31.438c-0.225 0.75-0.575 1.537-1.051 2.362-0.898 1.575-2.299 3.175-4.199 4.8-1.55 1.3-3.412 2.313-5.588 3.038l-1.688 0.3c2.9-1.2 4.963-2.875 6.188-5.025 0.551-1 0.913-1.912 1.088-2.737 0.025-0.2 0.063-0.712 0.113-1.537 2.199-0.301 3.911-0.701 5.137-1.201z" clip-rule="evenodd" fill="#8CC7DE" fill-rule="evenodd"/>
		<use transform="matrix(.75 0 0 -.75 13.1 31.9)" y="-13.6" width="23.65" height="13.6" enable-background="new" opacity=".4414" xlink:href="#ay"/>
		<use transform="matrix(.75 0 0 -.75 10.05 30.55)" y="-13.45" width="12.4" height="13.45" enable-background="new" opacity=".1719" xlink:href="#ax"/>
	<path d="m42.85 30.275h0.75v0.149c0 0.875-1.638 1.612-4.912 2.213-3.274 0.6-7.238 0.899-11.888 0.899s-8.612-0.3-11.888-0.899c-3.275-0.6-4.912-1.337-4.912-2.212v-0.149h0.938c0 0.699 1.563 1.3 4.688 1.8 3.1 0.499 6.862 0.75 11.287 0.75 4.426 0 8.188-0.251 11.287-0.75 3.1-0.501 4.65-1.101 4.65-1.801z" clip-rule="evenodd" fill="#C9E5F2" fill-rule="evenodd"/>
</svg>