<?xml version='1.0' encoding='utf-8'?>
<svg xmlns="http://www.w3.org/2000/svg" version="1.1" id="Layer_1" x="0px" y="0px" viewBox="0 0 1000 1000" style="enable-background:new 0 0 1000 1000;"> <style type="text/css"> .st0{fill:#3E0411;} .st1{fill:#EC5F5E;} .st2{fill:#FB837F;} .st3{fill:#D1C1AE;} .st4{fill:#FEFEFF;} .st5{fill:#EFEADD;} </style> <path class="st0" d="M208.59,825.68c-6.19-36.8-0.47-91.61,0.47-103.36c3.94-49.16,12.52-48.64,0.69-51.23 c-69.55-15.24-195.6-30.36-195.1-127.18c0.1-18.98,3.33-26.38,36.58-143.93c40.14-141.2,169.21-252.11,298.28-289.98 c17.73-5.2,13.93-17.69,58.29-30.04c48.38-13.46,152.17-22.94,182.5,17.07c4.02,5.3,3.83,6.08,68.2,21.93 c16.4,4.04,45.06,4.51,62.94,23.64c8.48,9.08,126.3,60.53,196.57,187.64c23.86,43.16,23.54,57.68,53.29,148.22 c19.47,59.26,23.52,110.21-32.47,145.89c-52.06,33.17-111.15,36.9-129,44.37c-16.32,6.83-4.65,0.11,1.34,95.63 c1.56,24.87-2.01,57.26-2.83,61.32c-6.97,34.77-14.84,79.52-75.7,87.73c-44.47,5.99-63.31-8.55-76.29-1.45 c-37.52,20.54-204.92,38.25-272.93,1.13C354.91,897.49,231.48,961.87,208.59,825.68z M292.31,787.44 c2.54,7.64-1.22,22.92,2.37,47.83c3.94,27.36,21.9,65.31,47.12,60.4c13.9-2.7,23.76,0.71,36.19-2.73 c-10.48-14.09-14.53-29.93-15.4-46.72c-0.89-17.32-0.96-57.64,6.39-73.35c0.43,4.1-0.73,8.17-0.73,12.12 c0.02,47.8-9.09,104.15,36.95,118.81c82.78,26.36,202.75,7.55,232.09-2.37c51.25-17.32,36.88-82.41,37.77-107.7 c0.1-2.95-3.15-5.83-0.18-8.83c1.42,0.68,18.47,72.51-10.27,106.68c94.06,15.95,123.56-3.38,129.37-95.58 c5.73-90.89-40.23-233.78-44.43-309.74c-0.2-3.66-1.92-4.99-4.67-5.83c-27.04-8.23-54.56-14.5-82.41-19.13 c-181.23-30.11-305.37,2.26-395.39,26.52c-1.65,0.45-3.17,0.61-2.96,3.05c5.48,65.09-114.38,408.58,31.61,405.73 c61.65-1.21-13.2,16.14-6.38-97.68C289.56,795.23,289.24,790.7,292.31,787.44z M962.88,569.56l-0.11,0.05 c1.45-0.68,1.32-2.21,1.65-3.39c11.39-40.7-14.31-89.9-25.96-133.56c-2.18-8.16-4.06-16.5-8.01-24.94 c-6.37,21.56-33.04,28.21-54.08,23c-90.71-22.45-88.07-124.79-20.86-131.08c25.14,0.32,25.57,4.74,21.61-0.74 c-44.78-62.06-109.08-112.82-161.34-137.16c0.8,9.85-9.3,16.57-18.99,18.5c-41.84,8.31-109.7-26.78-47.65-45.88l-63.12-16.45 c-2.83,58.32-209.07,74.57-221.84,6.01c-57.27,15.97-108.46,42.83-155.03,79.74c22.55,2.38,29.78,24.52,18.53,35.39 c-12.89,12.45-28.73,15.66-46.03,13.58c-3.27,0.02-6.01-1.87-9.06-2.56c-3.76-0.85-5.74-6.65-9.68-4.74 c-3.3,1.59-5.48,5.52-8.16,8.42C76.25,339.01,66.01,414.75,52.18,461.3c-21.43,72.11-23.72,80.78-15.71,108.12 c17.5,59.76,131.28,73.86,177.82,84.72c8.48,1.98,4.53-1.18,13.06-39.03c1.75-7.79-1.03-3.07-38.88-15.13 c-77.81-24.79-69.15-70.45,7.91-98.26c391.65-141.33,769.69,8.81,643.17,84.35c-35.36,21.11-53.41,15.46-51.59,24.06 c9.37,44.21,7.42,44.63,12.52,43.31C839.18,643.42,951.22,622.85,962.88,569.56z M384.33,107.79c-25.73,11.65-14.86,37.5,19.87,48.5 c63.33,20.06,143.44,2.91,169.62-22.04c9.16-8.72,8.86-23.48-0.76-30.84C537.96,76.54,440.68,82.27,384.33,107.79z M861.2,304.46 c-34.52-1.89-60.34,32.69-47.58,69.33c13.48,38.71,56.81,59.26,86.82,53.57c19.82-3.76,31.43-19.46,25.04-37.35 c-7.08-19.86-34.1-80.81-46.26-83.27C873.12,305.5,867.09,303.14,861.2,304.46z M233.21,497.37c-28.22,8.95-57.13,16.33-80.6,35.96 c-11.03,9.22-16.29,23.07-5.36,36c14.53,17.2,47.7,26.42,71.92,31.92c10.38,2.36,10.45,2.21,12.33-7.94 C251.23,487.01,253.8,490.84,233.21,497.37z M784.52,595.41c0.53,2.68,1.62,4.2,4.92,3.2c103.84-31.39,85.12-71.38-16.07-108.92 C763.01,485.85,762.49,483.21,784.52,595.41z M681.8,177.96c21.7,1.48,40.81-13.51,24.74-26.51c-9.96-8.06-24.94-10.54-38.31-13.01 c-9.51-1.76-18.81-1.84-27.63,2.94c-5.24,2.83-12.2,5.2-12.63,11.52C626.91,168.57,664.16,176.76,681.8,177.96z M229.03,224.75 c-0.95-12.04-18.97-22.65-26.78-15.72c-37.15,32.96-37.35,31.38-32.68,35.08C184.71,256.1,230.79,246.92,229.03,224.75z"/> <path class="st1" d="M625.39,147.61c-7.86,15.41,18.79,26.91,35.68,31.09c30.04,7.43,42.9-1.5,46.12-2.3 c7.44,6.99,49.3,22.5,105.97,75.04c6.88,6.38,40.37,39.03,42.34,48.2c-66.64,6.24-70.41,108.5,20.86,131.08 c13.85,3.43,27.58,1.49,40.58-4.67c1.25,0.32,1.81,1.33,2.21,2.38c23.2,62.11,23.73,60.73,21.19,63.21 c-5.47,5.35-38.98-12.95-45.76-16.67c-44.55-24.42-15.41-10.85-151.05-57.42c2.78,2.97,4.94,3.53,7.03,4.26 c30.43,10.67,17.35,8.21,56.2,22.21c24.16,8.7,46.74,13.12,99.46,43.58c70.41,40.68,54.01,81.84,56.19,84.1 c-14.32,39.9-73.2,60.08-114.41,70c-51.08,12.29-50.57,14.44-51.63,9.21c-9.1-45.13-11.16-43.86-4.78-45.61 c239.87-65.98-151.02-231.51-501.3-131.29c-60.15,17.21-111.48,27.81-140.26,52.77c-43.01,37.31,4,68.05,73.78,82.63 c6.83,1.43,3.4,1.64-3.08,40.47c-0.71,4.24-1.83,5.34-6.44,4.26c-39.98-9.33-159.59-23.15-177.82-84.72 c1.67-7.04,1.75-14.52,4.84-21.15C54.51,520,73.53,497,101.8,482.56c88.03-44.95,84.22-42.4,120.95-52.95 c81.59-23.43,93.94-29.19,165.34-43.68c12.77-2.59,113.35-15.29,159.72-10.73c25.1,2.47,35.24,4.19,66.52,7.39 c-13.62-4.25-59.17-12.01-91.71-12.78c-40-0.94-106.84,6.48-117.88,8.81c-2.19,0.46-4.73,0.81-7.62-1.07 c32.01-17.95,44.41-114.69,39.78-120.67c9.12-10.52,9.33-15.55,1.14-27.02c9.89-4.78,2-32.85,35.98-60.79 c25.47-1.72,50.56-5.26,74.47-14.85C595.89,135.22,553.36,129.89,625.39,147.61z M623.42,274.9c-30.65,0.9-67.88,25.81-42.46,51.24 c17.3,17.31,50.29,22.82,73.69,12.3C691.81,321.73,672.47,273.46,623.42,274.9z M708.06,200.62c-23.34-2.22-43.55,17.87-24.06,32.34 c18.92,14.05,52.19,9.25,55.12-5.5C742.79,208.95,721.59,198.91,708.06,200.62z M540.36,254.63c7.2,0.04,9.2-1.54,9.3-7.34 c0.1-6.05-2.43-8.39-9.14-8.4C527.99,238.88,526.4,254.56,540.36,254.63z M734.68,278.48c-0.17-9.56-17.03-6.83-16.77,1.6 C718.17,288.29,734.87,288.95,734.68,278.48z M598.17,193.47c0.8-10.29-15.38-6.85-14.48,0.41 C584.77,202.68,598.18,202.79,598.17,193.47z M491.97,299.82c10.35-0.69,7.93-12.43-0.17-12.45 C483.79,287.34,482.56,298.48,491.97,299.82z M732.79,333.71c-8.97-1.29-7.86,12.22,1.51,12.44c4.04,0.09,4.99-2.08,5.03-5.71 C739.39,335.82,737.97,333.11,732.79,333.71z M449.22,327.6c0.76-7.61-9.9-7-11.07,1.1C437.28,334.71,449.8,336.4,449.22,327.6z M492.65,205.04c7.39,0.59,6.37-8.61,0.56-8.91C486.29,195.78,485.55,205.57,492.65,205.04z M786.56,293.24 c-0.24-3.65-4.72-3.97-4.95-1.01C781.36,295.53,786.4,296.45,786.56,293.24z"/> <path class="st2" d="M474,169.1c-32.26,26.53-27.7,56.79-35.98,60.79c-16.01-15.21-39.84-10.03-51.77,3.72 c-22.07,25.46,20.76,42.26,50.63,23.29c3.93,5.06-6.64,102.08-39.78,120.67c2.89,1.87,5.43,1.53,7.62,1.07 c15.96-3.36,32.22-3.82,48.36-5.48c57.64-5.93,89.3-4.07,136.24,4.05c26.55,4.59,36.04,7.01,7.95,3.64 c-109.2-13.07-120.74-2.71-170.34,0.15c-68.77,3.97-235.18,56.99-251.44,64.75c-80.67,38.45-109.71,50.1-134.19,102.53 c-3.09,6.62-3.17,14.11-4.84,21.15c-1.4-4.84-3.85-9.43-3.39-14.7c4.37-24.64,14.97-27.44,32.24-80.67 c28.6-88.16,39.88-139.62,116.35-221.44c31,3.74,64.66-15.89,46.03-40.24c8.1-10.58,79.01-56.98,143.09-71.94 C393.29,165.34,440.43,168.96,474,169.1z M172.74,363.22c11.48,24.22,109.66,15.45,121.22-40.37c4.05-19.56-13.2-41-53.25-35.95 c-3.15,0.4-7.38-0.45-9.28,3.69c-41.8,1.69-72.59,34.57-68.7,56.72C163.9,353.95,168.6,358.42,172.74,363.22z M110.88,421.2 c-1.13,8.61,8.76,9,10.31,1.27C122.56,415.61,112.68,414.08,110.88,421.2z M341.99,191.33c-0.12-6.77-9.76-6.81-9.95-0.05 C331.87,197.37,341.41,197.96,341.99,191.33z M332.02,350.69c-0.32-5.37-8.92-4.66-8.98,1.01 C322.98,356.8,332.05,357.57,332.02,350.69z M327.22,233.55c-2.15-6.24-8.43-2.96-8.2,0.75 C319.3,238.82,326.61,239.19,327.22,233.55z M265.7,226.43c-4.9,0.41-4.82,6.78-0.07,6.85C270.83,233.35,271.06,226.55,265.7,226.43 z M301.44,197.13c4.38-0.71,4.34-6.89-0.48-6.82C295.91,190.39,295.17,197.26,301.44,197.13z M354.96,305.23 c-1.07-5.09-7.24-3.78-7.29,0.32C347.61,309.8,354.16,310.27,354.96,305.23z"/> <path class="st3" d="M261.66,527.6c0.68-12.25,3.48-24.37,2.44-36.73c-0.2-2.43,1.31-2.6,2.96-3.05 c90.65-24.43,169.3-42.97,284.89-37.76c81.37,3.66,143.04,15.2,192.91,30.38c2.76,0.84,4.47,2.17,4.67,5.83 c3.16,57.17,13.76,50.52-9.04,41.01c-1.26-0.53-2.58-2.21-4-0.85c-1.11,1.06,0.14,2.46,0.39,3.69 c17.89,85.87,43.36,212.81,28.33,299.22C761,853.62,753.4,886.59,729,888.72c-6.06,0.53-12.21,0.73-16.96-4.28 c14.49-41.82,7.52-94.48,5.12-114.27c-1.89-15.6-6.15-30.71-9.52-46c8.81-3.65,17.81-6.9,25.72-12.4 c39.47-27.45-2.81-57.88-53.08-63.37c20.63-93.41-32.69-157.1-79.85-120.73c3.62-12.09,19.94-18.92,12.39-19 c-114.96-1.26-187.46,9.23-214.92,8.94c-1.82-0.02-3.35,0.46-4,2.4c-3.28-0.06-2.08-3.04-3.28-1.36 c-10.34-1.45-20.64-2.38-30.49,2.4C354.77,518.93,267.03,528.65,261.66,527.6z"/> <path class="st4" d="M490.29,86.19c101.06-0.85,114.54,40.53,56.51,64.18c-45.56,18.57-104.07,18.13-142.61,5.92 c-34.76-11.01-45.57-36.86-19.87-48.5C410.3,96.02,440.77,86.61,490.29,86.19z"/> <path class="st4" d="M674.87,784.91c-2.98,3,0.28,5.88,0.18,8.83c-0.52,14.77,2.44,29.46,1.07,44.25 c-6,64.8-28.93,67.88-130.62,77.85c-43.44,4.26-98.73,1.21-140.32-12.03c-45.98-14.64-36.92-70.95-36.95-118.81 c0-3.95,1.17-8.03,0.73-12.12c-0.32-1.95,2.82-3.83,0.12-5.84c4.76-3.85-0.26-9.48,6.79-16.56c0,85.24-9.16,135.51,45.81,143.42 c20.78,2.99,41.92-4.85,50.6-27.05c6.51-16.64,4.14-19.71,7.04-19.38c3.57,0.41,1.56,44.84,42.79,44.79 c41.72-0.06,46.89-47.57,53.55-44.69c3.77,1.63-6.15,35.94,19.92,43.28c67.49,19,45.52-187.13,55.85-159.85 c15.7,41.44,14.48,101.26,14.48,127.34c6.1-32.05,1.74-78.22,6.27-82.72L674.87,784.91z"/> <path class="st4" d="M861.2,304.46c5.89-1.32,11.91,1.04,18.03,2.28c12.18,2.46,38.42,61.31,46.26,83.27 c6.38,17.9-5.22,33.6-25.04,37.35c-30.06,5.7-73.27-14.65-86.82-53.57C800.84,337.07,826.77,302.57,861.2,304.46z"/> <path class="st4" d="M712.05,884.44c6.77,7.15,29.04,8.4,40.37-12.77c48.24-90.16-18.26-343-15.92-345.25 c2.04-1.95,10.99,6,18.38,7.06c0.04,0.12,33.36,154.42,37.15,207.59c1.65,23.12,5.7,60.73-4.15,98.61 c-8,30.78-19.47,50.02-54.2,55.88c-17.66,2.98-46.22-0.11-46.25-0.11l9.9-16.9C702.21,880.6,706.26,884.68,712.05,884.44z"/> <path class="st3" d="M231.5,593.31c-1.88,10.16-1.95,10.3-12.33,7.94c-79.7-18.12-91.79-46.81-66.55-67.92 c24.32-20.34,55.11-27.92,85.41-37.22C253.61,491.33,249.36,497.08,231.5,593.31z"/> <path class="st3" d="M766.54,495.93c0.32-8.61,0.33-8.65,6.82-6.25c100.96,37.45,119.99,77.51,16.07,108.92 c-5.42,1.64-3.95,4.45-20.69-84.14C767.48,507.78,767.11,500.92,766.54,495.93z"/> <path class="st4" d="M261.66,527.6c5.8,1.13,11.4-1.35,17.15-0.92c-0.74,54.04-101.24,352.58,12.36,361.13 c1.37,3,4.24,5.23,4.54,8.79c-68.95,2.7-74.85-76.44-71.82-144.86C226.46,693.92,261.62,527.7,261.66,527.6z"/> <path class="st3" d="M181.66,252.61C74.78,366.98,81.46,456.55,47.22,519.45c-6.08,11.18-11.89,22.53-14.14,35.27 c-3.63-12.18,0.37-23.78,2.87-35.43c2.1-9.78,33.79-121.79,38.04-133.7c28.98-81.25,86.14-138.93,88.93-140.28 c3.94-1.9,5.93,3.89,9.68,4.74C175.65,250.74,178.39,252.63,181.66,252.61z"/> <path class="st3" d="M697.33,878.56l-9.9,16.9l-22.83-3.87c23.13-27.5,18.26-78.93,7.6-115.97c-2.23,2.21-1.62,4.81-1.74,7.22 c-4.88-1.37-5.51,2.45-6.75,5.53c-6.9-52.46-11.6-51.03-12.52-59.61c15.37,1.89,30.63-0.04,45.9-1.42 C704.66,770.28,708.49,836.41,697.33,878.56z"/> <path class="st2" d="M855.51,299.65c-1.97-9.17-35.47-41.83-42.34-48.2c-57.44-53.25-98.21-67.76-105.97-75.04 c4.52-3.66,9.19-7.22,8.59-14.66c86.62,40.36,165.57,134.17,161.79,139.8C870.3,300.04,862.91,299.74,855.51,299.65z"/> <path class="st2" d="M962.77,569.61c1.69-38.93-22.95-62.59-56.55-82.01c-52.72-30.46-75.28-34.87-99.46-43.58 c-38.89-14.01-25.73-11.53-56.2-22.21c-2.1-0.73-4.25-1.29-7.03-4.26c134.99,46.35,106.57,33.04,151.05,57.42 c6.78,3.72,40.29,22.02,45.76,16.67c2.54-2.48,2.01-1.13-21.19-63.21c-0.39-1.05-0.96-2.06-2.21-2.38 c5.62-5.02,11.08-10.15,13.5-18.33c3.95,8.44,5.84,16.78,8.01,24.94c11.67,43.76,37.35,92.84,25.96,133.56 C964.09,567.4,964.23,568.93,962.77,569.61z"/> <path class="st3" d="M370.78,140.43c-64.02,14.95-135.15,61.57-143.09,71.94c-5.3-4.43-11.06-7.94-18.53-8.73 c46.57-36.9,97.76-63.76,155.03-79.74C365.26,129.72,367.25,135.4,370.78,140.43z"/> <path class="st4" d="M681.8,177.96c-20.95-1.43-54.81-10.43-53.83-25.06c0.43-6.32,7.39-8.69,12.63-11.52 c8.82-4.77,18.11-4.7,27.63-2.94C739.96,151.7,709.82,179.87,681.8,177.96z"/> <path class="st4" d="M189.24,248.91c-6.93,0.78-13.76-0.12-19.67-4.8c-2.19-1.73-3.22-3.01-0.31-5.54 c36.84-32.01,32.7-33.17,43.72-31.08c13.08,2.49,26.07,22.74,4.68,34.79C208.89,247.23,199.62,249.74,189.24,248.91z"/> <path class="st4" d="M353.31,894.41c-20.28,2.15-25.25,5.22-40.77-13.84c-26.73-32.85-16.78-82.74-20.24-93.12 c0.15-2.09,2.53-3.14,2.33-5.49c-0.93-10.75,5.7-46.97,9.72-51.54c7.82,5.66-31.85,155.8,46.72,155.09 C352.35,888.34,353.01,891.33,353.31,894.41z"/> <path class="st3" d="M353.31,894.41c-0.53-5.5-7.67-19.7-3.17-59.74c2.69-23.94,14.55-67.41,18.95-67.63 c4.36,3.24-9.93,12.72-6.51,79.19c0.86,16.78,4.91,32.62,15.4,46.72C369.78,895.21,361.53,894.61,353.31,894.41z"/> <path class="st3" d="M298.25,747.72c-0.55,11.48-4.62,22.6-3.62,34.23c0.2,2.36-2.18,3.41-2.33,5.49 c-5.04,5.35-6.24,50.02,3.42,75.05c5.11,13.26,12.96,24.39,24.77,34.1h-24.78c-0.3-3.56-3.17-5.78-4.54-8.79 c-0.72-2.3-1.31-4.66-2.2-6.9C269.26,831.32,285.84,767.69,298.25,747.72z"/> <path class="st2" d="M625.39,147.61l-46.81-11.52c4.06-5.28,7.09-11.01,7.44-18.19l63.12,16.45 C639.75,137.25,631.8,141.1,625.39,147.61z"/> <path class="st2" d="M962.41,571.7c-0.92-0.95-0.76-1.66,0.47-2.14L962.41,571.7z"/> <path class="st2" d="M878.19,300.85c0.25,0.23,0.73,0.61,0.7,0.65c-0.39,0.58-0.86,0.42-1.31,0.04 C877.75,301.28,877.95,301.05,878.19,300.85z"/> <path class="st0" d="M623.42,274.9c48.92-1.43,68.5,46.79,31.23,63.54c-43.29,19.46-106.47-18.29-72.64-47.67 C594.91,279.57,610.5,275.27,623.42,274.9z M627.4,339.39c57,0,51.26-47.84,17.14-57.47c-20.53-5.79-40.29-3.29-57.91,9.69 c-14.95,11.02-13.66,22.46-0.82,33.89C597.45,335.87,611.56,340.65,627.4,339.39z"/> <path class="st0" d="M436.88,256.9c-29.99,19.05-72.56,2.01-50.63-23.29C411.03,205.03,460.93,229.15,436.88,256.9z M439.14,247.06 c1.79-12.76-5.45-18.54-15.57-21.62c-27.39-8.33-57.34,25.44-27.14,34.28C416.73,265.67,437.97,255.4,439.14,247.06z"/> <path class="st0" d="M708.06,200.62c13.89-1.76,34.69,8.54,31.06,26.84c-2.88,14.54-35.86,19.8-55.12,5.5 C664.5,218.49,684.73,198.4,708.06,200.62z M710.54,237.8c9.06,0.2,23.85-2.95,25.38-12.43c2.97-18.38-28.03-27.85-48.31-16.94 C669.4,218.22,684.48,237.23,710.54,237.8z"/> <path class="st4" d="M540.36,254.63c-14-0.08-12.34-15.76,0.16-15.74c6.7,0.01,9.24,2.34,9.14,8.4 C549.56,253.09,547.55,254.67,540.36,254.63z"/> <path class="st4" d="M734.68,278.48c0.19,10.42-16.51,9.86-16.77,1.6C717.65,271.6,734.51,268.94,734.68,278.48z"/> <path class="st4" d="M598.17,193.47c0.01,9.32-13.4,9.22-14.48,0.41C582.79,186.59,598.97,183.2,598.17,193.47z"/> <path class="st4" d="M491.97,299.82c-9.41-1.34-8.18-12.48-0.17-12.45C499.88,287.39,502.35,299.13,491.97,299.82z"/> <path class="st4" d="M732.79,333.71c5.17-0.6,6.59,2.11,6.54,6.73c-0.04,3.63-0.99,5.81-5.03,5.71 C724.93,345.93,723.88,332.42,732.79,333.71z"/> <path class="st4" d="M679.29,361.18c4.86-0.56,6.19,1.98,6.15,6.32c-0.04,3.41-0.93,5.45-4.73,5.36 C671.91,372.65,670.92,359.97,679.29,361.18z"/> <path class="st4" d="M767.44,389.48c2.83-0.33,3.61,1.15,3.58,3.68c-0.02,1.99-0.54,3.18-2.76,3.13 C763.14,396.17,762.56,388.77,767.44,389.48z"/> <path class="st4" d="M900.71,446.06c2.83-0.33,3.61,1.15,3.58,3.68c-0.02,1.99-0.54,3.18-2.76,3.13 C896.4,452.76,895.83,445.36,900.71,446.06z"/> <path class="st4" d="M628.29,239.4c2.83-0.33,3.61,1.15,3.58,3.68c-0.02,1.99-0.54,3.18-2.76,3.13 C623.99,246.09,623.41,238.7,628.29,239.4z"/> <path class="st4" d="M530.4,348.66c2.83-0.33,3.61,1.15,3.58,3.68c-0.02,1.99-0.54,3.18-2.76,3.13 C526.1,355.35,525.52,347.96,530.4,348.66z"/> <path class="st4" d="M181.53,413.09c2.83-0.33,3.61,1.15,3.58,3.68c-0.02,1.99-0.54,3.18-2.76,3.13 C177.22,419.79,176.65,412.39,181.53,413.09z"/> <path class="st4" d="M141.1,357.69c2.83-0.33,3.61,1.15,3.58,3.68c-0.02,1.99-0.54,3.18-2.76,3.13 C136.79,364.38,136.22,356.99,141.1,357.69z"/> <path class="st4" d="M320.53,269.02c2.83-0.33,3.61,1.15,3.58,3.68c-0.02,1.99-0.54,3.18-2.76,3.13 C316.23,275.72,315.65,268.32,320.53,269.02z"/> <path class="st4" d="M408,283.99c2.83-0.33,3.61,1.15,3.58,3.68c-0.02,1.99-0.54,3.18-2.76,3.13 C403.7,290.68,403.12,283.29,408,283.99z"/> <path class="st4" d="M449.22,327.6c0.57,8.8-11.94,7.11-11.07,1.1C439.32,320.62,449.99,319.99,449.22,327.6z"/> <path class="st5" d="M492.67,205.05c-7.12,0.51-6.37-9.26,0.54-8.91C499.05,196.43,500,205.63,492.67,205.05z"/> <path class="st5" d="M786.56,293.24c-0.16,3.21-5.2,2.3-4.95-1.01C781.84,289.27,786.32,289.58,786.56,293.24z"/> <path class="st1" d="M231.43,290.59c1.9-4.14,6.14-3.29,9.28-3.69c62.06-7.81,72.22,47.1,20.54,75.85 c-33.87,18.84-81.1,16.11-88.51,0.48c3.38,1,42.25,22.23,95.89-10.26C296.05,336.35,279.64,289.5,231.43,290.59z"/> <path class="st0" d="M272.7,306.5c12.49,12.19,12.77,36.26-4.07,46.46c-52.29,31.68-91.16,11.65-95.89,10.26 c-4.14-4.8-8.85-9.27-10.01-15.91C156.51,311.94,230.77,265.57,272.7,306.5z M204.93,367.35c20.71,0.22,50.95-7.82,65.61-20.99 c20.87-18.74-1.35-57.93-48.48-51.65C171.61,301.43,135.45,366.6,204.93,367.35z"/> <path class="st4" d="M110.88,421.2c1.8-7.13,11.68-5.59,10.31,1.27C119.62,430.31,109.76,429.71,110.88,421.2z"/> <path class="st5" d="M341.99,191.33c-0.58,6.64-10.12,6.03-9.95-0.05C332.23,184.51,341.87,184.56,341.99,191.33z"/> <path class="st5" d="M332.02,350.69c0.02,6.88-9.04,6.11-8.98,1.01C323.11,346.03,331.71,345.32,332.02,350.69z"/> <path class="st5" d="M327.22,233.55c-0.61,5.62-7.92,5.28-8.2,0.75C318.79,230.43,325.12,227.43,327.22,233.55z"/> <path class="st5" d="M265.7,226.43c5.36,0.12,5.13,6.92-0.07,6.85C260.87,233.22,260.8,226.85,265.7,226.43z"/> <path class="st5" d="M301.44,197.13c-6.26,0.13-5.55-6.74-0.48-6.82C305.77,190.25,305.84,196.42,301.44,197.13z"/> <path class="st4" d="M354.96,305.23c-0.78,4.99-7.35,4.61-7.29,0.32C347.72,301.44,353.89,300.17,354.96,305.23z"/> <path class="st5" d="M298.25,747.72c-8.62,13.18-20.37,53.81-18.11,91.22c1.51,25.04,6.95,35.88,11.04,48.88 c-113.55-8.54-13.12-305.99-12.36-361.13c25.93-2.16,77.89-6.99,81.3-5.64c-40.17,23.76-46.06,96.2-33.84,128.61 c-96.88,12.36-84.77,72.68-1.12,80.21c1.15,1.68,48.09,3.83,77.91-16.07c15.28-10.2,17.48-16.9,12.19-33.9 c32.36-42.7,23.86-134.2-21.38-159.88c0.65-1.93,2.18-2.42,4-2.4c29.04,0.31,96.01-10.25,214.92-8.94c7.11,0.08-8.9,7.35-12.39,19 c-27.36,26.51-35.18,72.58-28.27,108.9c7.71,40.51,20.61,37.89,17.4,46.12c-5.74,14.73,4.84,25.35,18.44,33.4 c12.33,7.29,26.11,10.09,39.93,12.76c-0.05,38.5,0.52,118.67-21.91,149.97c-16.58,23.14-48.31,13.34-49.23-14.2 c-0.48-14.54,0.79-16.24-1.11-17.06c-2.28-0.99-1.96,0.36-10.58,16.19c-23.59,43.36-75.77,34.71-83.09-6.5 c-1.67-9.42-1.01-9.6-2.66-9.79c-2.9-0.33-0.52,2.72-7.04,19.38c-10.85,27.73-42.05,33.68-67.75,22.26 c-35.76-15.9-28.66-61.8-28.66-138.63c-7.06,7.1-2.02,12.7-6.79,16.56c-3.89,0.19-27.74,67.8-18.02,118.46 c-8.06,0.07-15.97,0.09-23.29-4.49c-45.9-28.69-17.07-146-23.43-150.6C299.98,735.38,301.67,742.5,298.25,747.72z M501.28,781.93 c63.31-3.13,73.96-90.33,68.2-92.43c-5.07-1.85-16.93,25.98-53.11,31.97c-53.75,8.9-74.08-33.49-80.85-31.05 c-2.57,0.93-2.18,3.31-1.88,5.3C439.93,736.43,461.25,779.71,501.28,781.93z M437.87,824.65c-12.76,0.15-20.09,23.87-10.58,41.03 c6.6,11.91,20.45,11.59,26.66-0.12C462.23,849.96,454.76,824.44,437.87,824.65z M619.03,780.13c17.99-14.74,6.38-53.36-8.67-38.12 C594.25,758.35,602.23,793.9,619.03,780.13z M514.67,831.19c-0.04-2.32,0.17-4.39-0.03-6.43c-0.54-5.3-5-10.52-9.45-11.4 c-19.37-3.85-9.89,43.75,5.98,29.99C515.12,839.92,514.76,835.45,514.67,831.19z M550.81,853.65c-0.03-6.4-3.15-9.98-8.64-9.91 c-5.15,0.07-7.15,2.61-7.15,9.06C535.02,867.58,550.87,867.88,550.81,853.65z"/> <path class="st0" d="M590.29,679.44c-39.53-48.71-18.9-165.13,40.61-162.08c38.79,1.99,64.3,63.44,49.37,131.04 C647.43,647.27,613.63,655.17,590.29,679.44z M609.4,537.95c-32.2,0.06-27.31,44.32-0.85,44.1 C636.87,581.81,639.53,537.9,609.4,537.95z"/> <path class="st0" d="M326.28,649.65c-7.51-19.92-8.38-57.62,2.17-85.87c19.96-53.45,45.39-45.58,63.19-44.8 c0.48,0.93,1.35,1.01,2.25,1.02c45.57,25.88,53.7,117.24,21.38,159.88C393.88,656.2,358.2,649.15,326.28,649.65z M380.38,559.58 c-0.73-31.69-44.49-28.48-44.9-0.39c-0.14,9.52,9.38,22.97,22.22,22.93C370.73,582.07,381.23,570.41,380.38,559.58z"/> <path class="st2" d="M590.29,679.44c53.35-55.49,163.21-26.42,157.95,12.33c-4.44,32.72-92.46,52.59-140.25,24.32 C583.15,701.4,587.9,690.4,590.29,679.44z"/> <path class="st5" d="M697.08,727.34c3.32-1.72,6.82-2.85,10.56-3.18c3.37,15.29,7.63,30.41,9.52,46 c2.43,20.06,9.32,72.61-5.12,114.27c-5.78,0.24-9.84-3.84-14.72-5.88C708.52,836.27,704.61,769.99,697.08,727.34z"/> <path class="st5" d="M391.64,518.99c-0.38-0.02-0.72-0.13-1.03-0.34C391.32,517.66,391.43,518.48,391.64,518.99z"/> <path class="st5" d="M663.71,788.37c1.24-3.07,1.87-6.9,6.75-5.53c-2.14,25.12,0.24,50.48-4.53,75.5 C665.93,823.4,666.55,828.61,663.71,788.37z"/> <path class="st4" d="M585.8,325.51c-43.52-38.71,74.79-73.23,84.36-15.77C674.94,338.45,616.26,352.6,585.8,325.51z"/> <path class="st4" d="M383.98,248.59c-2.05-10.74,17.57-29.84,39.58-23.15c10.11,3.08,17.36,8.86,15.57,21.62 C436.92,262.84,387.81,268.64,383.98,248.59z"/> <path class="st4" d="M710.54,237.8c-26.71-0.59-40.82-19.74-22.93-29.37c13.67-7.36,27.4-6.31,40.57,1.39 C742.23,218.03,738.99,238.43,710.54,237.8z"/> <path class="st4" d="M170.79,328.18c54.13-80.63,159.97,0.41,77.4,30.82C187.26,381.45,152.41,355.57,170.79,328.18z"/> <path class="st2" d="M403.08,713.79c-64.9,43.3-187-5.17-132.02-44.99C337.19,620.93,461.4,674.89,403.08,713.79z"/> <path class="st0" d="M501.28,781.93c-40.18-2.22-61.39-45.77-67.63-86.21c-0.31-1.99-0.7-4.37,1.88-5.3 c7.66-2.76,25.98,40.13,80.85,31.05c36.45-6.03,47.98-33.84,53.11-31.97C574.88,691.47,565.26,778.77,501.28,781.93z M461.28,742.92 c-2,1.2-4.13,2.1-2.17,5.07c21.44,32.62,56.4,36.31,81.22,8.36c2.57-2.89,1.91-4.46-0.69-6.68 C516.99,730.42,487.13,727.5,461.28,742.92z"/> <path class="st4" d="M441.86,874.33c-23.9,1.89-24.53-49.44-4-49.69C462.01,824.35,463.93,872.59,441.86,874.33z"/> <path class="st4" d="M624.32,743.06c14.07,19.86-11.34,55.78-20.96,32.99C595.75,758.01,613,727.09,624.32,743.06z"/> <path class="st4" d="M514.67,831.19c0.08,4.25,0.45,8.72-3.51,12.16c-15.97,13.85-25.33-33.83-5.98-29.99 c4.46,0.89,8.92,6.1,9.45,11.4C514.85,826.8,514.63,828.88,514.67,831.19z"/> <path class="st4" d="M550.81,853.65c0.06,14.29-15.79,13.87-15.79-0.85c0-6.45,2-8.98,7.15-9.06 C547.66,843.67,550.78,847.25,550.81,853.65z"/> <path class="st3" d="M325.17,729.87l2.19,0.11C326.58,730.91,325.85,730.86,325.17,729.87z"/> <path class="st3" d="M349.98,729.94l2.15-0.11C351.47,730.84,350.75,730.91,349.98,729.94z"/> <path class="st4" d="M609.4,537.95c30.16-0.05,27.43,43.86-0.85,44.1C582.01,582.27,577.22,538.01,609.4,537.95z"/> <path class="st4" d="M380.38,559.58c0.86,10.83-9.65,22.49-22.68,22.54c-12.84,0.05-22.35-13.4-22.22-22.93 C335.89,531.11,379.65,527.86,380.38,559.58z"/> <path class="st2" d="M539.63,749.67c2.61,2.22,3.26,3.79,0.69,6.68c-24.81,27.94-59.76,24.27-81.22-8.36 c-1.96-2.97,0.17-3.88,2.17-5.07C487.11,727.51,516.97,730.4,539.63,749.67z"/> </svg>